PathFileType	4	(X/Y/Z)	C:/Users/beibeiliu/ov580/test_trc/User2\sequence.38_training_dense_right.trc
DataRate	CameraRate	NumFrames	NumMarkers	Units	OrigDataRate	OrigDataStartFrame	OrigNumFrames
120	120	10	19	mm	120	27	105
Frame#	Time	ThumbCMC			ThumbMCP			ThumbIP			ThumbTip			IndexMCP			IndexPIP			IndexTip			MiddleMCP			MiddlePIP			MiddleTip			RingMCP			RingPIP			RingTip			PinkyMCP			PinkyPIP			PinkyTip			BackHand1			BackHand2			BackHand3	
		X0	Y0	Z0	X1	Y1	Z1	X2	Y2	Z2	X3	Y3	Z3	X4	Y4	Z4	X5	Y5	Z5	X6	Y6	Z6	X7	Y7	Z7	X8	Y8	Z8	X9	Y9	Z9	X10	Y10	Z10	X11	Y11	Z11	X12	Y12	Z12	X13	Y13	Z13	X14	Y14	Z14	X15	Y15	Z15	X16	Y16	Z16	X17	Y17	Z17	X18	Y18	Z18	
26	0.216667	153.737	8.29877	-37.2672	139.651	33.5571	-55.2544	121.069	53.0505	-78.1742	97.3443	56.4417	-95.6911	127.972	-3.82995	-109.729	104.9	14.9136	-122.644	86.9239	42.972	-110.675	112.745	-28.8327	-112.315	89.455	-13.7947	-139.324	67.5849	5.71033	-152.705	94.2839	-41.0318	-104.815	77.7087	-31.4073	-127.924	57.5689	-14.2586	-144.672	74.244	-45.5067	-80.3434	61.6739	-34.4733	-103.609	46.7585	-21.1999	-119.647	118.017	-50.0799	-48.691	127.965	-56.4891	-17.8265	153.59	-36.5046	-41.2202	
27	0.225	157.487	10.6359	-34.2897	141.191	37.5752	-53.8128	118.142	53.9424	-81.4097	97.3254	59.4653	-94.3939	127.218	-5.7183	-111.698	109.887	14.1366	-126.937	88.716	41.6489	-120.039	112.036	-27.5738	-112.94	90.5399	-14.6285	-138.697	70.144	10.809	-155.053	92.6993	-41.4004	-98.621	78.2439	-30.073	-125.375	56.3114	-12.4483	-142.276	75.4794	-43.5009	-78.4822	56.9085	-36.628	-98.5249	45.9845	-18.592	-121.02	116.899	-50.2932	-49.1776	132.793	-55.325	-15.6103	152.055	-34.9546	-44.5245	
28	0.233333	155.399	11.7083	-37.0637	138.873	38.6431	-57.3932	119.249	55.3294	-77.1012	97.4261	62.6447	-93.8912	133.129	-5.46757	-115.897	117.616	10.8289	-133.924	93.4122	38.4635	-135.199	112.616	-25.9161	-114.825	95.4745	-12.1111	-139.267	71.9833	10.7448	-156.246	91.5622	-36.9497	-102.835	74.9155	-28.3533	-124.604	58.5978	-8.50883	-140.987	74.6154	-39.5024	-79.1705	56.8942	-31.3633	-100.709	41.6068	-19.3541	-116.62	119.137	-47.9828	-47.9988	129.951	-53.6664	-15.7422	153.797	-31.7732	-46.041	
29	0.241667	154.968	11.6443	-34.4946	138.276	40.2648	-52.554	118.216	61.2205	-77.4187	95.2105	63.7527	-93.3454	131.806	-6.49962	-116.095	120.95	7.51416	-136.288	100.466	29.7518	-145.944	110.843	-24.3766	-115.924	92.0702	-8.42537	-140.081	73.6506	17.5598	-156.484	90.463	-34.6632	-100.278	73.8851	-23.0481	-125.682	58.33	-1.54695	-142.269	74.2132	-36.9351	-77.7849	53.2394	-28.4125	-100.015	38.2568	-16.6952	-114.623	116.952	-46.5104	-49.6508	128.064	-53.6532	-16.618	154.459	-29.7509	-42.2638	
30	0.25	154.915	12.9731	-36.0475	137.379	40.7279	-53.4237	116.837	59.073	-72.9609	96.28	65.4399	-87.3446	136.858	-5.03467	-113.143	119.489	6.74109	-135.999	102.779	25.9359	-149.052	110.491	-20.8612	-113.46	91.0175	-2.78107	-138.215	70.1297	22.8296	-148.07	89.2417	-33.3507	-101.578	74.6561	-20.4346	-124.206	53.4273	3.12053	-138.178	74.282	-35.847	-78.137	55.5205	-26.2211	-99.443	39.6642	-13.9375	-113.49	115.775	-46.1989	-47.3249	127.939	-51.0597	-18.3698	153.443	-31.3498	-41.5317	
31	0.258333	154.276	11.6685	-32.4879	133.889	39.5577	-53.1386	114.671	57.1044	-72.1558	92.7598	65.3334	-88.6204	133.337	-7.85251	-108.735	119.467	8.1614	-134.674	98.8944	26.4533	-147.418	108.21	-17.6197	-112.272	87.5357	3.48228	-130.709	68.2898	36.2097	-134.451	89.6471	-29.712	-100.997	71.53	-15.6793	-120.616	58.9367	8.7421	-131.831	72.2947	-37.2446	-74.329	55.12	-27.0162	-95.3061	40.2038	-10.8154	-112.295	117.236	-45.2999	-47.1343	131.873	-52.7403	-15.8095	150.542	-33.0999	-40.1726	
32	0.266667	156.914	13.3595	-29.7801	133.41	39.8431	-52.9857	112.853	57.1535	-75.1085	90.406	61.5994	-89.2818	134.792	-7.52304	-107.564	120.521	11.1062	-134.731	101.957	27.7732	-144.457	110.15	-15.1615	-107.364	89.3157	11.6483	-126.348	65.9887	39.7187	-120.757	90.4931	-29.0382	-98.2539	73.6661	-12.7096	-118.523	55.1982	15.4667	-125.19	75.0124	-36.9683	-73.1911	52.1976	-28.5927	-92.095	38.1739	-8.08472	-110.578	116.905	-48.3391	-44.7558	127.191	-53.2696	-15.5086	150.572	-33.099	-42.2942	
33	0.275	154.78	12.9767	-30.4541	135.337	40.0555	-49.0199	112.743	56.4335	-71.858	90.1407	60.9311	-91.0687	136.462	-4.48903	-111.791	121.395	8.47054	-133.003	98.6188	26.4547	-143.4	107.634	-15.15	-105.467	87.7806	12.6705	-123.148	69.3975	42.0443	-114.636	88.0327	-27.6668	-100.377	71.3007	-11.3417	-117.285	55.4085	15.2716	-120.325	73.5557	-37.3918	-75.3629	53.4659	-28.5065	-93.1096	35.2636	-10.9075	-110.985	119.687	-48.4605	-45.7548	130.573	-51.7895	-17.9886	155.503	-29.666	-39.2167	
34	0.283333	153.099	12.48	-32.3157	133.677	40.1381	-52.6436	111.878	52.2665	-70.7683	89.3817	59.9612	-91.2078	132.605	-7.02831	-108.806	119.897	11.0736	-135.362	99.7517	27.3719	-143.814	110.411	-9.98693	-109.779	88.2257	13.459	-121.203	68.2318	45.0675	-107.014	91.3522	-26.7069	-99.4482	72.5856	-11.3362	-115.25	57.6525	22.1435	-120.358	74.6502	-36.681	-75.4616	53.5389	-27.4926	-93.5695	39.9646	-11.3209	-110.787	118.013	-46.6018	-43.2421	131.566	-50.5314	-14.3249	153.998	-29.6611	-41.7283	
35	0.291667	154.205	12.0184	-28.8845	132.369	39.0953	-53.5143	111.549	55.4077	-73.2975	88.8406	56.0259	-87.9121	135.519	-4.49457	-112.456	118.258	7.01424	-130.872	100.698	28.1043	-143.948	108.24	-11.4379	-110.672	86.1036	14.0444	-121.408	66.1752	41.9412	-106.513	89.4506	-29.0711	-97.263	72.9683	-7.93237	-117.845	54.617	21.4228	-118.751	74.6512	-37.7743	-77.8278	57.5055	-28.9238	-92.9215	39.687	-11.7138	-109.922	122.202	-46.8983	-45.6704	132.568	-51.9292	-12.5976	152.976	-32.3858	-40.3019	
